<svg height="512pt" viewBox="0 0 512.00533 512" width="512pt" xmlns="http://www.w3.org/2000/svg"><path d="m234.667969 320.003906c-35.285157 0-64-28.714844-64-64s28.714843-64 64-64h106.664062v-133.335937c0-32.359375-26.300781-58.66406275-58.664062-58.66406275h-224c-32.363281 0-58.667969 26.30468775-58.667969 58.66406275v394.667969c0 32.363281 26.304688 58.667968 58.667969 58.667968h224c32.363281 0 58.664062-26.304687 58.664062-58.667968v-133.332032zm0 0"/><path d="m397.164062 361.046875c-7.957031-3.304687-13.164062-11.09375-13.164062-19.710937v-64h-149.332031c-11.777344 0-21.335938-9.558594-21.335938-21.332032 0-11.777344 9.558594-21.335937 21.335938-21.335937h149.332031v-64c0-8.617188 5.207031-16.402344 13.164062-19.710938 7.976563-3.304687 17.152344-1.472656 23.25 4.628907l85.335938 85.335937c8.339844 8.339844 8.339844 21.820313 0 30.164063l-85.335938 85.332031c-6.097656 6.101562-15.273437 7.9375-23.25 4.628906zm0 0"/></svg>