<?xml version="1.0"?>
<svg xmlns="http://www.w3.org/2000/svg" xmlns:xlink="http://www.w3.org/1999/xlink" xmlns:svgjs="http://svgjs.com/svgjs" version="1.1" width="512" height="512" x="0" y="0" viewBox="0 0 512.00025 512" style="enable-background:new 0 0 512 512" xml:space="preserve" class=""><g><path xmlns="http://www.w3.org/2000/svg" d="m449.335938 104.886719c-9.039063-6.15625-19.007813-10.710938-29.996094-13.007813-32.316406-6.792968-65.910156 6.140625-85.570313 32.949219l-76.535156 104.398437-24.195313-17.734374 76.535157-104.398438c26.609375-36.28125 72.113281-53.777344 115.929687-44.578125 16.722656 3.507813 31.878906 10.816406 45.238282 20.964844l41.257812-43.828125-15.226562-10.148438c-78.058594-52.039062-180.101563-33.539062-235.582032 42.113282l-145.546875 193.742187 86.609375 86.609375zm0 0" fill="#ffd700" data-original="#000000" style="" class=""/><path xmlns="http://www.w3.org/2000/svg" d="m102.402344 451.820312 78.640625-78.636718-84.855469-84.855469-10.605469 10.609375c-13.828125 13.828125-16.757812 34.492188-8.792969 51.21875l-59.238281 59.238281c-23.402343 23.398438-23.402343 61.453125 0 84.851563 23.398438 23.402344 61.453125 23.402344 84.851563 0l21.214844-21.210938zm0 0" fill="#ffd700" data-original="#000000" style="" class=""/></g></svg>
